<?xml version="1.0" standalone="no"?>
<!DOCTYPE svg PUBLIC "-//W3C//DTD SVG 20010904//EN"
 "http://www.w3.org/TR/2001/REC-SVG-20010904/DTD/svg10.dtd">
<svg version="1.0" xmlns="http://www.w3.org/2000/svg"
 width="256.000000pt" height="256.000000pt" viewBox="0 0 256.000000 256.000000"
 preserveAspectRatio="xMidYMid meet">

<g transform="translate(0.000000,256.000000) scale(0.100000,-0.100000)"
fill="#000000" stroke="none">
<path d="M1114 2473 l-50 -85 -115 -2 -114 -2 -58 82 -57 83 -43 -18 c-158
-69 -233 -104 -241 -111 -4 -5 2 -50 14 -102 l23 -94 -81 -81 -80 -81 -92 20
c-51 11 -96 16 -100 11 -7 -7 -105 -253 -112 -280 -2 -7 34 -34 80 -61 l83
-49 2 -116 3 -116 -75 -48 c-41 -26 -79 -51 -83 -54 -8 -5 103 -273 121 -292
5 -4 50 3 102 16 l94 23 81 -81 82 -81 -17 -76 c-9 -42 -26 -89 -37 -105 -61
-83 -94 -182 -94 -288 0 -62 22 -180 36 -194 3 -3 84 75 182 172 97 97 182
177 187 177 6 0 62 -52 125 -115 l115 -115 -184 -184 -184 -184 53 -16 c181
-54 356 -11 486 118 105 105 150 225 142 377 l-5 87 118 118 119 118 49 -48
50 -49 -34 -39 c-45 -49 -46 -88 -6 -129 27 -26 36 -29 96 -29 105 0 165 -45
165 -124 0 -39 5 -46 158 -196 90 -90 174 -164 197 -175 83 -39 193 -17 256
52 69 74 84 183 37 264 -38 63 -320 329 -350 329 -41 1 -106 37 -122 69 -9 17
-16 55 -16 86 0 137 -83 187 -166 100 l-31 -33 -52 52 -51 52 117 116 118 116
60 -10 c137 -24 293 29 400 137 131 131 174 309 119 494 l-16 54 -184 -184
-184 -184 -120 120 -120 120 180 180 c99 99 180 183 180 187 0 11 -137 38
-197 38 -75 0 -164 -23 -229 -60 -28 -16 -60 -27 -70 -24 -11 2 -57 -6 -103
-19 l-84 -23 -82 82 -83 82 20 86 c11 48 18 92 15 99 -2 7 -56 32 -118 56 -63
24 -128 50 -144 57 l-31 13 -50 -86z m183 -45 c62 -24 82 -35 79 -47 -12 -45
-37 -173 -34 -175 93 -64 158 -124 200 -185 l17 -24 65 17 c36 9 67 16 70 16
3 0 -10 -26 -29 -57 -50 -85 -69 -168 -62 -279 l5 -91 -114 -114 -114 -114
-69 69 -69 68 5 62 4 61 -187 115 c-104 63 -194 116 -201 118 -7 2 -50 -34
-97 -80 l-84 -83 119 -185 c66 -102 123 -190 127 -196 5 -9 24 -9 66 -3 l60
10 68 -68 68 -68 -117 -117 -118 -116 -59 10 c-77 14 -179 -3 -265 -42 -48
-23 -62 -26 -57 -14 3 9 9 32 12 52 6 36 4 38 -60 80 -37 24 -85 68 -111 101
l-46 59 -90 -23 -91 -23 -27 61 c-15 34 -32 73 -37 87 -11 24 -7 28 68 78 l78
52 -7 58 c-9 68 -10 175 -1 218 7 30 4 32 -67 73 -41 23 -77 47 -81 52 -3 6 8
48 26 93 l32 83 91 -20 91 -20 25 34 c31 42 138 150 169 171 l23 16 -25 91
-25 92 22 8 c12 5 48 21 81 35 32 14 62 26 67 26 5 0 30 -33 57 -72 l49 -73
158 1 157 2 45 76 c25 42 48 76 51 76 3 0 43 -14 89 -32z m670 -456 c-86 -86
-157 -162 -157 -167 0 -13 332 -345 345 -345 5 0 81 71 167 157 l158 158 0
-61 c0 -203 -169 -379 -376 -392 -41 -2 -94 1 -120 7 l-48 12 -133 -133 -133
-133 -122 123 -123 122 133 133 134 134 -12 40 c-18 58 -8 186 19 255 13 34
43 81 73 113 84 92 172 133 288 134 l65 1 -158 -158z m-952 -290 l140 -88 1
-58 1 -58 302 -302 c165 -165 301 -306 301 -312 0 -6 -14 -23 -30 -39 l-31
-29 -304 304 -305 305 -62 0 -62 0 -88 140 c-48 77 -88 144 -88 150 0 13 61
75 74 75 6 0 74 -40 151 -88z m352 -664 c62 -62 113 -116 113 -120 0 -4 -60
-66 -134 -138 l-133 -130 13 -52 c18 -68 18 -120 -1 -193 -45 -175 -187 -293
-360 -303 l-80 -4 160 161 160 161 -178 177 -177 178 -161 -160 -161 -160 4
80 c6 96 36 169 104 244 91 101 261 154 390 122 l48 -12 130 130 c72 72 135
131 141 131 5 0 60 -51 122 -112z m560 -170 c-2 -13 -4 -5 -4 17 -1 22 1 32 4
23 2 -10 2 -28 0 -40z m27 -104 c3 -8 2 -12 -4 -9 -6 3 -10 10 -10 16 0 14 7
11 14 -7z m-206 -111 c-15 -2 -42 -2 -60 0 -18 2 -6 4 27 4 33 0 48 -2 33 -4z
m413 -30 c12 -16 12 -17 -1 -7 -8 7 -24 14 -35 17 -19 4 -19 5 1 6 12 0 28 -7
35 -16z m-286 -23 c10 -11 16 -20 13 -20 -3 0 -13 9 -23 20 -10 11 -16 20 -13
20 3 0 13 -9 23 -20z m72 -152 c-3 -7 -5 -2 -5 12 0 14 2 19 5 13 2 -7 2 -19
0 -25z m482 -102 c-3 -3 -11 5 -18 17 -13 21 -12 21 5 5 10 -10 16 -20 13 -22z
m-9 -150 c0 -2 -8 -10 -17 -17 -16 -13 -17 -12 -4 4 13 16 21 21 21 13z m-102
-53 c-10 -2 -26 -2 -35 0 -10 3 -2 5 17 5 19 0 27 -2 18 -5z"/>
<path d="M1690 1395 l-24 -26 27 -27 27 -27 27 27 27 27 -24 26 c-13 14 -26
25 -30 25 -4 0 -17 -11 -30 -25z"/>
<path d="M1160 865 l-24 -26 27 -27 27 -27 27 27 27 27 -24 26 c-13 14 -26 25
-30 25 -4 0 -17 -11 -30 -25z"/>
</g>
</svg>
